PathFileType	4	(X/Y/Z)	Patient4_TMGait_0pt2_03_right_06.trc.trc
DataRate	CameraRate	NumFrames	NumMarkers	Units	OrigDataRate	OrigDataStartFrame	OrigNumFrames
46.666666666667	46.666666666667	5	33	mm	46.666666666667	53	       141
Frame#	Time	Sacral			L.Shoulder			Chest			R.Shoulder			Neck			R.ASIS			L.ASIS			R.Thigh.Superior			R.Thigh.Lateral			R.Thigh.Inferior			R.Patella			L.Thigh.Superior			L.Thigh.Lateral			L.Thigh.Inferior			L.Patella			L.Shank.Superior			L.Shank.Lateral			L.Shank.Inferior			R.Shank.Superior			R.Shank.Lateral			R.Shank.Inferior			R.Heel			R.Midfoot.Superior			R.Midfoot.Lateral			R.Toe			L.Heel			L.Midfoot.Lateral			L.Midfoot.Superior			L.Toe			L.Elbow			L.Wrist			R.Elbow			R.Wrist			
		X1	Y1	Z1	X2	Y2	Z2	X3	Y3	Z3	X4	Y4	Z4	X5	Y5	Z5	X6	Y6	Z6	X7	Y7	Z7	X8	Y8	Z8	X9	Y9	Z9	X10	Y10	Z10	X11	Y11	Z11	X12	Y12	Z12	X13	Y13	Z13	X14	Y14	Z14	X15	Y15	Z15	X16	Y16	Z16	X17	Y17	Z17	X18	Y18	Z18	X19	Y19	Z19	X20	Y20	Z20	X21	Y21	Z21	X22	Y22	Z22	X23	Y23	Z23	X24	Y24	Z24	X25	Y25	Z25	X26	Y26	Z26	X27	Y27	Z27	X28	Y28	Z28	X29	Y29	Z29	X30	Y30	Z30	X31	Y31	Z31	X32	Y32	Z32	X33	Y33	Z33	

53	13.824285714286	803.004694415748	987.032455570854	605.053621933046	1007.989421433775	1403.916744975522	409.693037776886	1116.342882795281	1318.867935777975	558.543952718824	1062.307014446753	1398.718003030941	738.985012332125	1026.441501046861	1464.544756570374	565.140183619552	1043.314333406625	910.449943116696	699.317143670634	1001.752674537416	938.594696326927	428.665602100752	1100.404295702188	725.325028999006	636.469669011253	1043.952853248575	602.815725730868	694.157257805606	1108.717666056364	565.681231509870	594.518677322243	1119.139101618090	467.654405777190	591.397963790098	1095.915541190472	768.566432459073	451.852279060674	1055.938538246762	642.422267203215	365.159190267864	1162.171780383555	581.872833958309	426.734100179096	1176.723410608241	491.563807606988	409.617353651801	1107.238112862422	425.999273687754	390.385777220881	966.481716216100	396.963497008245	328.097445892088	944.312209250223	262.987051885734	367.087922987121	1070.158364065974	379.751909689395	602.064575595385	996.270371152363	288.907643244444	681.828545752717	993.428428885385	193.964059824596	609.329612471877	826.003578120069	46.241385266852	618.141459116659	1002.436993712371	96.048043585093	610.444302915375	924.491292859910	38.078719971726	669.450075292331	1124.460832093990	40.094570438434	608.564537258704	747.770679587634	198.781776189483	384.384915217544	810.080130683475	164.638559270615	301.645012475514	914.506373831084	169.839894140600	329.800779512298	995.700194233186	62.276300537110	289.415028168325	880.680366855996	1075.134694128801	295.380543290734	885.048110455956	814.203444779286	302.452384454458	1193.249667346208	1081.786813707589	836.641293519001	1400.865118807285	1171.551965684201	731.744906309387	
54	13.845714285714	802.969347485854	984.251036655053	607.384667683977	1003.061460172610	1403.848970642760	412.512329292720	1113.823393836376	1318.641015305252	559.438510917176	1061.225664768045	1396.421256908313	740.942818794778	1022.620357006677	1463.407853806590	568.289848572690	1044.421447521680	908.759139088118	699.490239287232	1000.697093455776	937.810721830491	429.281043027371	1101.900667102246	723.673747898641	635.719288500629	1046.188749671475	600.801100882504	693.065701317786	1110.740959410167	564.229239532983	592.971497658398	1121.190900164850	465.519646038713	589.656249720745	1096.870643328852	769.121613305396	452.677952196367	1059.389707019078	642.755643469045	365.883319128180	1165.752055809237	583.136276267807	427.912229242427	1181.335383402628	492.846331612902	410.555739232132	1112.246956491697	426.793049567628	390.482847563412	971.470858225622	397.614441146686	327.985990000561	949.908516485621	263.274463110257	366.031410496471	1070.876586473772	377.903495940301	600.655235653349	995.700878773764	288.309763176206	680.797594959328	991.256318762725	193.258972635988	608.673305788165	821.948734408529	46.883111549959	618.101786514767	998.458080547922	96.087760547670	610.316637482885	920.352312152596	38.365212328717	669.342846037381	1120.304018428215	39.756159572550	608.596472690197	753.684779904023	197.883392449265	383.029504797035	815.987869453412	165.121943015541	299.763003696509	920.445592238108	170.573881915323	327.940906076091	1002.188765276973	63.898476201773	286.064459366756	871.428950279646	1077.154548037694	298.682397526833	869.158712367797	816.922696226823	307.587630474849	1203.972757854863	1084.426361359556	833.147292770606	1403.570778735208	1187.805063602725	725.917608863055	
55	13.867142857143	802.952529175862	982.267083562886	609.529922157884	998.287206659035	1404.294260338099	415.112359960567	1111.487435935269	1318.930095000933	560.031673356182	1060.564596257347	1394.775269516049	742.566486501239	1019.099376919217	1462.816643841692	571.149527991777	1045.398250015201	907.527522810071	699.214816958328	999.335511226041	937.699399248258	429.496388973090	1102.652175845991	722.290956262142	634.682266620669	1047.497019133745	599.269713740755	691.974226679429	1111.650703317976	563.007644346320	591.440882062351	1121.979634402683	463.776714199497	588.055157016570	1096.746429223414	769.746015137126	452.409964729585	1060.635227177395	643.241828265144	365.670391286942	1167.116198911315	584.255292358420	427.704740759829	1183.705420340335	494.400807658308	410.349877353446	1115.814169653392	427.705298177296	389.575808070332	975.837584322856	396.360357918286	326.739526429884	956.959347827412	261.564123107016	363.895269004217	1070.594582228365	376.454246764823	599.401107950522	994.411314417674	287.925333460671	679.891352352853	988.707023806036	192.770000117907	608.110551883692	817.863720067813	47.516265649387	618.081815843450	994.470316131436	96.136124284672	610.206758023371	916.200060331329	38.650744225063	669.256110012130	1116.121010014753	39.466872833961	608.623431066727	762.498771663144	192.238745218799	380.508963633567	825.200471617626	161.640274425605	296.829181957989	929.365622833607	168.866659486235	325.068220622038	1013.035873120758	64.464965359703	282.001444235967	862.954852752126	1079.382142022821	302.330140574079	854.047557024182	819.847599459152	314.135268975502	1214.680882948183	1088.200046167148	829.379687512148	1406.052089401192	1203.772753275397	720.230887689684	
56	13.888571428571	802.911634463884	981.147976676532	611.469986775484	993.704315079095	1405.280824674012	417.458141348145	1109.335569182321	1319.756421763323	560.307108469370	1060.321399219179	1393.842668829796	743.832008573101	1015.925128753339	1462.810503389903	573.677162154044	1046.202028496904	906.808610486919	698.505433574932	997.656356467551	938.282416187687	429.318337080768	1102.612468658718	721.224213222619	633.404752052598	1047.805070838745	598.262348060911	690.934576438159	1111.375659314854	562.042055648134	589.990855432917	1121.425766702578	462.463173611269	586.655268351999	1095.617090990163	770.509945111498	451.160238617988	1059.857319179671	643.904660130836	364.587587017238	1166.447854173041	585.282189049248	426.246151089202	1184.024690881281	496.258223132716	409.098102995210	1118.094591461691	428.778340447444	387.795247700318	979.777562065952	393.365089217605	324.475234156387	965.520099663183	258.108352464927	360.873124831381	1069.244505078641	375.432635806634	598.351048092751	992.351195608437	287.746673978041	679.148311552164	985.742501185423	192.494712156611	607.663909573489	813.731917242347	48.098732755612	618.086269607012	990.459803340210	96.187022039115	610.120343368827	912.024080929544	38.915139620615	669.197942699127	1111.903995760341	39.234106963569	608.645109153121	774.259341863545	182.344485472698	376.982753567768	837.743641108297	154.595242812880	293.058505376244	941.252241212499	165.022732644878	321.439755495241	1028.099009679201	64.178655903781	277.606407486717	855.009797493540	1081.902661689310	306.375065559123	839.536717233091	823.051219017855	322.040986090665	1225.274006389989	1093.141885991477	825.437396689882	1408.378654814142	1219.545940610389	714.694892080497	
57	13.910000000000	802.811526097023	980.899896320764	613.175933080964	989.333091266227	1406.800886770893	419.509756268725	1107.352755817741	1321.106733704683	560.247004260258	1060.460748028370	1393.633997352818	744.713635356753	1013.113707622315	1463.389900123644	575.831249629257	1046.806070231863	906.621143429060	697.392094560857	995.685952927534	939.533861635649	428.766762230877	1101.778498520197	720.491943468230	631.938483319006	1047.092123502231	597.782086016519	689.986255695757	1109.904039521148	561.336380535976	588.671471543313	1119.513577954855	461.588235836800	585.495456572963	1093.592118584145	771.442448607892	449.097631179531	1057.331005209061	644.752367435023	362.761382631448	1163.999172705719	586.254336257668	423.764591414140	1182.549270598196	498.421164548271	406.991267925657	1119.273493434582	430.047629250685	385.343322672954	983.507112427699	388.919192501158	321.371042920000	975.534029183025	253.315777046014	357.222879317447	1066.812643407235	374.839468406348	597.533935459920	989.510062544795	287.750473566458	678.589474027128	982.344237729705	192.415140640760	607.342367233074	809.539957585800	48.587296120632	618.116590634817	986.411661068544	96.232991912030	610.059601814788	907.815207079444	39.138292074747	669.173707557397	1107.647276471663	39.062252357546	608.661377430718	788.844437771170	169.023722219931	372.666420474546	853.457368372144	144.686135950006	288.720311538744	955.899932387706	159.552182598010	317.371257664559	1046.958387020645	63.396863788732	273.303725827919	847.332578179926	1084.799193823007	310.807735443580	825.528872238336	826.644206233982	331.195061627414	1235.638123213364	1099.205644251008	821.392405840652	1410.572197843950	1235.174032309297	709.302613690300	
